<svg xmlns="http://www.w3.org/2000/svg" width="27" height="23" viewBox="0 0 27 23"><title>Page 1 Copy 6</title><path d="M9.89 2.09L1.56 16.53c-.75 1.29-.75 2.9 0 4.19.74 1.29 2.13 2.09 3.62 2.09h16.66c1.49 0 2.88-.8 3.63-2.09.74-1.29.74-2.9 0-4.19L17.14 2.09C16.39.8 15 0 13.51 0c-1.49 0-2.88.8-3.62 2.09zm4.68 1.49l8.33 14.43c.47.82-.12 1.84-1.06 1.84H5.18c-.94 0-1.53-1.02-1.06-1.84l8.33-14.43c.24-.41.65-.62 1.06-.62.41 0 .83.21 1.06.62z" fill="#fff"/><path d="M9.05 16.42l4.17-7.23c.15-.25.52-.25.67 0l4.16 7.23c.15.25-.03.57-.33.57H9.39c-.3 0-.49-.32-.34-.57" fill="#fff"/></svg>